<svg xmlns="http://www.w3.org/2000/svg" xmlns:xlink="http://www.w3.org/1999/xlink" viewBox="0 0 365.57 365.57"><defs><style>.cls-1{fill:none;}.cls-2{clip-path:url(#clip-path);}.cls-3{fill:#c3996b;}</style><clipPath id="clip-path"><rect class="cls-1" x="78.04" y="171.89" width="209.9" height="47.37"/></clipPath></defs><title>Pattern</title><g id="Layer_2" data-name="Layer 2"><g id="Layer_1-2" data-name="Layer 1"><g class="cls-2"><rect class="cls-1" x="182.79" width="182.79" height="182.79"/><path class="cls-3" d="M183.31,159.31v-9a.54.54,0,0,0-.52-.54v10A.54.54,0,0,0,183.31,159.31Z"/><path class="cls-3" d="M194.08,169l-7.76-4.46a.54.54,0,0,0-.54.94l7.76,4.46a.54.54,0,0,0,.54-.94Z"/><path class="cls-3" d="M229.55,173.21a1.09,1.09,0,0,0-2.18,0v9a1.07,1.07,0,0,0,.22.63h1.73a1.06,1.06,0,0,0,.22-.63Z"/><path class="cls-3" d="M274.16,149.82a.54.54,0,0,0-.54.54v9a.54.54,0,1,0,1.09,0v-9A.54.54,0,0,0,274.16,149.82Z"/><path class="cls-3" d="M285.47,169l-7.76-4.46a.54.54,0,1,0-.54.94l7.76,4.46a.54.54,0,0,0,.54-.94Z"/><path class="cls-3" d="M270.62,164.53,262.89,169a.54.54,0,0,0,.27,1,.54.54,0,0,0,.27-.07l7.73-4.51a.54.54,0,1,0-.55-.94Z"/><path class="cls-3" d="M320.94,173.21a1.09,1.09,0,0,0-2.18,0v9a1.07,1.07,0,0,0,.22.63h1.73a1.06,1.06,0,0,0,.22-.63Z"/><path class="cls-3" d="M228.46.46a1.07,1.07,0,0,0,.87-.46H227.6A1.07,1.07,0,0,0,228.46.46Z"/><path class="cls-3" d="M240,8.55,232.28,4.1A1.09,1.09,0,1,0,231.2,6L239,10.44A1.09,1.09,0,1,0,240,8.55Z"/><path class="cls-3" d="M224.64,4.12l-7.73,4.51a1.09,1.09,0,1,0,1.1,1.88L225.74,6a1.09,1.09,0,1,0-1.1-1.88Z"/><path class="cls-3" d="M319.85.46a1.07,1.07,0,0,0,.87-.46H319A1.07,1.07,0,0,0,319.85.46Z"/><path class="cls-3" d="M331.44,8.55,323.68,4.1A1.09,1.09,0,1,0,322.59,6l7.76,4.46a1.09,1.09,0,1,0,1.08-1.89Z"/><path class="cls-3" d="M316,4.12l-7.73,4.51a1.09,1.09,0,1,0,1.1,1.88L317.14,6A1.09,1.09,0,1,0,316,4.12Z"/><path class="cls-3" d="M365,150.36v9a.54.54,0,0,0,.54.54h0v-10h0A.54.54,0,0,0,365,150.36Z"/><path class="cls-3" d="M362,164.53,354.28,169a.54.54,0,0,0,.27,1,.54.54,0,0,0,.27-.07l7.73-4.51a.54.54,0,1,0-.55-.94Z"/><path class="cls-3" d="M183.85,113.62v-9a1.09,1.09,0,0,0-1.06-1.08V114.7A1.09,1.09,0,0,0,183.85,113.62Z"/><path class="cls-3" d="M194.35,122.8l-7.76-4.46a1.09,1.09,0,0,0-1.08,1.89l7.76,4.46a1.09,1.09,0,0,0,1.08-1.89Z"/><path class="cls-3" d="M228.46,127a.54.54,0,0,0-.54.54v9a.54.54,0,0,0,1.09,0v-9A.54.54,0,0,0,228.46,127Z"/><path class="cls-3" d="M239.78,146.12,232,141.66a.54.54,0,1,0-.54.94l7.76,4.46a.54.54,0,1,0,.54-.94Z"/><path class="cls-3" d="M224.92,141.68l-7.73,4.51a.54.54,0,0,0,.27,1,.54.54,0,0,0,.27-.07l7.73-4.51a.54.54,0,1,0-.55-.94Z"/><path class="cls-3" d="M274.16,103.58a1.09,1.09,0,0,0-1.09,1.09v9a1.09,1.09,0,1,0,2.18,0v-9A1.09,1.09,0,0,0,274.16,103.58Z"/><path class="cls-3" d="M285.74,122.8,278,118.34a1.09,1.09,0,1,0-1.08,1.89l7.76,4.46a1.09,1.09,0,0,0,1.08-1.89Z"/><path class="cls-3" d="M270.34,118.37l-7.73,4.51a1.09,1.09,0,1,0,1.1,1.88l7.73-4.51a1.09,1.09,0,1,0-1.1-1.88Z"/><path class="cls-3" d="M319.85,127a.54.54,0,0,0-.54.54v9a.54.54,0,1,0,1.09,0v-9A.54.54,0,0,0,319.85,127Z"/><path class="cls-3" d="M331.17,146.12l-7.76-4.46a.54.54,0,0,0-.54.94l7.76,4.46a.54.54,0,1,0,.54-.94Z"/><path class="cls-3" d="M316.31,141.68l-7.73,4.51a.54.54,0,0,0,.27,1,.54.54,0,0,0,.27-.07l7.73-4.51a.54.54,0,1,0-.55-.94Z"/><path class="cls-3" d="M364.46,104.66v9a1.09,1.09,0,0,0,1.09,1.09h0V103.58h0A1.09,1.09,0,0,0,364.46,104.66Z"/><path class="cls-3" d="M361.73,118.37,354,122.88a1.09,1.09,0,1,0,1.1,1.88l7.73-4.51a1.09,1.09,0,1,0-1.1-1.88Z"/><path class="cls-3" d="M183.31,67.92V59a.54.54,0,0,0-.52-.54v10A.54.54,0,0,0,183.31,67.92Z"/><path class="cls-3" d="M193.54,78.51a.54.54,0,0,0,.54-.94l-7.76-4.46a.54.54,0,0,0-.54.94Z"/><path class="cls-3" d="M228.46,80.73a1.09,1.09,0,0,0-1.09,1.09v9a1.09,1.09,0,0,0,2.18,0v-9A1.09,1.09,0,0,0,228.46,80.73Z"/><path class="cls-3" d="M240,99.95l-7.76-4.46a1.09,1.09,0,1,0-1.08,1.89l7.76,4.46A1.09,1.09,0,1,0,240,99.95Z"/><path class="cls-3" d="M224.64,95.52,216.92,100a1.09,1.09,0,1,0,1.1,1.88l7.73-4.51a1.09,1.09,0,1,0-1.1-1.88Z"/><path class="cls-3" d="M274.7,67.92V59a.54.54,0,0,0-1.09,0v9a.54.54,0,0,0,1.09,0Z"/><path class="cls-3" d="M284.93,78.51a.54.54,0,0,0,.54-.94l-7.76-4.46a.54.54,0,1,0-.54.94Z"/><path class="cls-3" d="M263.43,78.59l7.73-4.51a.54.54,0,1,0-.55-.94l-7.73,4.51a.54.54,0,0,0,.27,1A.54.54,0,0,0,263.43,78.59Z"/><path class="cls-3" d="M319.85,80.73a1.09,1.09,0,0,0-1.09,1.09v9a1.09,1.09,0,0,0,2.18,0v-9A1.09,1.09,0,0,0,319.85,80.73Z"/><path class="cls-3" d="M331.44,99.95l-7.76-4.46a1.09,1.09,0,1,0-1.08,1.89l7.76,4.46a1.09,1.09,0,1,0,1.08-1.89Z"/><path class="cls-3" d="M316,95.52,308.31,100a1.09,1.09,0,1,0,1.1,1.88l7.73-4.51a1.09,1.09,0,1,0-1.1-1.88Z"/><path class="cls-3" d="M365,59v9a.54.54,0,0,0,.54.54h0v-10h0A.54.54,0,0,0,365,59Z"/><path class="cls-3" d="M354.83,78.59l7.73-4.51a.54.54,0,1,0-.55-.94l-7.73,4.51a.54.54,0,0,0,.27,1A.54.54,0,0,0,354.83,78.59Z"/><path class="cls-3" d="M183.85,22.22v-9a1.09,1.09,0,0,0-1.06-1.08V23.31A1.09,1.09,0,0,0,183.85,22.22Z"/><path class="cls-3" d="M194.35,31.4l-7.76-4.46a1.09,1.09,0,0,0-1.08,1.89l7.76,4.46a1.09,1.09,0,0,0,1.08-1.89Z"/><path class="cls-3" d="M228.46,45.61a.54.54,0,0,0,.54-.54v-9a.54.54,0,0,0-1.09,0v9A.54.54,0,0,0,228.46,45.61Z"/><path class="cls-3" d="M239.23,55.67a.54.54,0,1,0,.54-.94L232,50.27a.54.54,0,1,0-.54.94Z"/><path class="cls-3" d="M217.74,55.74l7.73-4.51a.54.54,0,1,0-.55-.94l-7.73,4.51a.54.54,0,0,0,.27,1A.54.54,0,0,0,217.74,55.74Z"/><path class="cls-3" d="M274.16,12.18a1.09,1.09,0,0,0-1.09,1.09v9a1.09,1.09,0,0,0,2.18,0v-9A1.09,1.09,0,0,0,274.16,12.18Z"/><path class="cls-3" d="M285.74,31.4,278,26.95a1.09,1.09,0,1,0-1.08,1.89l7.76,4.46a1.09,1.09,0,0,0,1.08-1.89Z"/><path class="cls-3" d="M270.34,27l-7.73,4.51a1.09,1.09,0,1,0,1.1,1.88l7.73-4.51a1.09,1.09,0,1,0-1.1-1.88Z"/><path class="cls-3" d="M319.85,45.61a.54.54,0,0,0,.54-.54v-9a.54.54,0,0,0-1.09,0v9A.54.54,0,0,0,319.85,45.61Z"/><path class="cls-3" d="M330.63,55.67a.54.54,0,1,0,.54-.94l-7.76-4.46a.54.54,0,1,0-.54.94Z"/><path class="cls-3" d="M309.13,55.74l7.73-4.51a.54.54,0,1,0-.55-.94l-7.73,4.51a.54.54,0,0,0,.27,1A.54.54,0,0,0,309.13,55.74Z"/><path class="cls-3" d="M365.55,12.18a1.09,1.09,0,0,0-1.09,1.09v9a1.09,1.09,0,0,0,1.09,1.09h0V12.19Z"/><path class="cls-3" d="M361.73,27,354,31.49a1.09,1.09,0,1,0,1.1,1.88l7.73-4.51a1.09,1.09,0,1,0-1.1-1.88Z"/><rect class="cls-1" x="182.79" y="182.79" width="182.79" height="182.79"/><path class="cls-3" d="M183.31,342.1v-9a.54.54,0,0,0-.52-.54v10A.54.54,0,0,0,183.31,342.1Z"/><path class="cls-3" d="M194.08,351.75l-7.76-4.46a.54.54,0,0,0-.54.94l7.76,4.46a.54.54,0,0,0,.54-.94Z"/><path class="cls-3" d="M229.55,356a1.09,1.09,0,1,0-2.18,0v9a1.07,1.07,0,0,0,.22.63h1.73a1.06,1.06,0,0,0,.22-.63Z"/><path class="cls-3" d="M274.16,332.6a.54.54,0,0,0-.54.54v9a.54.54,0,0,0,1.09,0v-9A.54.54,0,0,0,274.16,332.6Z"/><path class="cls-3" d="M285.47,351.75l-7.76-4.46a.54.54,0,1,0-.54.94l7.76,4.46a.54.54,0,0,0,.54-.94Z"/><path class="cls-3" d="M270.62,347.32l-7.73,4.51a.54.54,0,0,0,.27,1,.54.54,0,0,0,.27-.07l7.73-4.51a.54.54,0,1,0-.55-.94Z"/><path class="cls-3" d="M320.94,356a1.09,1.09,0,0,0-2.18,0v9a1.07,1.07,0,0,0,.22.63h1.73a1.06,1.06,0,0,0,.22-.63Z"/><path class="cls-3" d="M228.46,183.25a1.07,1.07,0,0,0,.87-.46H227.6A1.07,1.07,0,0,0,228.46,183.25Z"/><path class="cls-3" d="M240,191.34l-7.76-4.46a1.09,1.09,0,1,0-1.08,1.89l7.76,4.46a1.09,1.09,0,1,0,1.08-1.89Z"/><path class="cls-3" d="M224.64,186.91l-7.73,4.51a1.09,1.09,0,1,0,1.1,1.88l7.73-4.51a1.09,1.09,0,1,0-1.1-1.88Z"/><path class="cls-3" d="M319.85,183.25a1.07,1.07,0,0,0,.87-.46H319A1.07,1.07,0,0,0,319.85,183.25Z"/><path class="cls-3" d="M331.44,191.34l-7.76-4.46a1.09,1.09,0,1,0-1.08,1.89l7.76,4.46a1.09,1.09,0,1,0,1.08-1.89Z"/><path class="cls-3" d="M316,186.91l-7.73,4.51a1.09,1.09,0,1,0,1.1,1.88l7.73-4.51a1.09,1.09,0,1,0-1.1-1.88Z"/><path class="cls-3" d="M365,333.15v9a.54.54,0,0,0,.54.54h0v-10h0A.54.54,0,0,0,365,333.15Z"/><path class="cls-3" d="M362,347.32l-7.73,4.51a.54.54,0,0,0,.27,1,.54.54,0,0,0,.27-.07l7.73-4.51a.54.54,0,1,0-.55-.94Z"/><path class="cls-3" d="M183.85,296.4v-9a1.09,1.09,0,0,0-1.06-1.08v11.12A1.09,1.09,0,0,0,183.85,296.4Z"/><path class="cls-3" d="M194.35,305.58l-7.76-4.46A1.09,1.09,0,0,0,185.5,303l7.76,4.46a1.09,1.09,0,0,0,1.08-1.89Z"/><path class="cls-3" d="M228.46,309.76a.54.54,0,0,0-.54.54v9a.54.54,0,0,0,1.09,0v-9A.54.54,0,0,0,228.46,309.76Z"/><path class="cls-3" d="M239.78,328.9,232,324.45a.54.54,0,1,0-.54.94l7.76,4.46a.54.54,0,1,0,.54-.94Z"/><path class="cls-3" d="M224.92,324.47,217.19,329a.54.54,0,0,0,.27,1,.54.54,0,0,0,.27-.07l7.73-4.51a.54.54,0,1,0-.55-.94Z"/><path class="cls-3" d="M274.16,286.36a1.09,1.09,0,0,0-1.09,1.09v9a1.09,1.09,0,1,0,2.18,0v-9A1.09,1.09,0,0,0,274.16,286.36Z"/><path class="cls-3" d="M285.74,305.58,278,301.13A1.09,1.09,0,1,0,276.9,303l7.76,4.46a1.09,1.09,0,0,0,1.08-1.89Z"/><path class="cls-3" d="M270.34,301.16l-7.73,4.51a1.09,1.09,0,1,0,1.1,1.88l7.73-4.51a1.09,1.09,0,1,0-1.1-1.88Z"/><path class="cls-3" d="M319.85,309.76a.54.54,0,0,0-.54.54v9a.54.54,0,1,0,1.09,0v-9A.54.54,0,0,0,319.85,309.76Z"/><path class="cls-3" d="M331.17,328.9l-7.76-4.46a.54.54,0,1,0-.54.94l7.76,4.46a.54.54,0,0,0,.54-.94Z"/><path class="cls-3" d="M316.31,324.47,308.58,329a.54.54,0,0,0,.27,1,.54.54,0,0,0,.27-.07l7.73-4.51a.54.54,0,1,0-.55-.94Z"/><path class="cls-3" d="M364.46,287.45v9a1.09,1.09,0,0,0,1.09,1.09h0V286.37h0A1.09,1.09,0,0,0,364.46,287.45Z"/><path class="cls-3" d="M361.73,301.16,354,305.67a1.09,1.09,0,1,0,1.1,1.88l7.73-4.51a1.09,1.09,0,1,0-1.1-1.88Z"/><path class="cls-3" d="M183.31,250.71v-9a.54.54,0,0,0-.52-.54v10A.54.54,0,0,0,183.31,250.71Z"/><path class="cls-3" d="M193.54,261.3a.54.54,0,0,0,.54-.94l-7.76-4.46a.54.54,0,0,0-.54.94Z"/><path class="cls-3" d="M228.46,263.52a1.09,1.09,0,0,0-1.09,1.09v9a1.09,1.09,0,0,0,2.18,0v-9A1.09,1.09,0,0,0,228.46,263.52Z"/><path class="cls-3" d="M240,282.73l-7.76-4.46a1.09,1.09,0,1,0-1.08,1.89l7.76,4.46a1.09,1.09,0,1,0,1.08-1.89Z"/><path class="cls-3" d="M224.64,278.31l-7.73,4.51a1.09,1.09,0,1,0,1.1,1.88l7.73-4.51a1.09,1.09,0,1,0-1.1-1.88Z"/><path class="cls-3" d="M274.7,250.71v-9a.54.54,0,0,0-1.09,0v9a.54.54,0,1,0,1.09,0Z"/><path class="cls-3" d="M284.93,261.3a.54.54,0,0,0,.54-.94l-7.76-4.46a.54.54,0,1,0-.54.94Z"/><path class="cls-3" d="M263.43,261.38l7.73-4.51a.54.54,0,1,0-.55-.94l-7.73,4.51a.54.54,0,0,0,.27,1A.54.54,0,0,0,263.43,261.38Z"/><path class="cls-3" d="M319.85,263.52a1.09,1.09,0,0,0-1.09,1.09v9a1.09,1.09,0,0,0,2.18,0v-9A1.09,1.09,0,0,0,319.85,263.52Z"/><path class="cls-3" d="M331.44,282.73l-7.76-4.46a1.09,1.09,0,1,0-1.08,1.89l7.76,4.46a1.09,1.09,0,1,0,1.08-1.89Z"/><path class="cls-3" d="M316,278.31l-7.73,4.51a1.09,1.09,0,1,0,1.1,1.88l7.73-4.51a1.09,1.09,0,1,0-1.1-1.88Z"/><path class="cls-3" d="M365,241.76v9a.54.54,0,0,0,.54.54h0v-10h0A.54.54,0,0,0,365,241.76Z"/><path class="cls-3" d="M354.83,261.38l7.73-4.51a.54.54,0,1,0-.55-.94l-7.73,4.51a.54.54,0,0,0,.27,1A.54.54,0,0,0,354.83,261.38Z"/><path class="cls-3" d="M183.85,205v-9a1.09,1.09,0,0,0-1.06-1.08v11.12A1.09,1.09,0,0,0,183.85,205Z"/><path class="cls-3" d="M194.35,214.19l-7.76-4.46a1.09,1.09,0,0,0-1.08,1.89l7.76,4.46a1.09,1.09,0,0,0,1.08-1.89Z"/><path class="cls-3" d="M228.46,228.4a.54.54,0,0,0,.54-.54v-9a.54.54,0,1,0-1.09,0v9A.54.54,0,0,0,228.46,228.4Z"/><path class="cls-3" d="M239.23,238.45a.54.54,0,0,0,.54-.94L232,233.05a.54.54,0,0,0-.54.94Z"/><path class="cls-3" d="M217.74,238.53l7.73-4.51a.54.54,0,1,0-.55-.94l-7.73,4.51a.54.54,0,0,0,.27,1A.54.54,0,0,0,217.74,238.53Z"/><path class="cls-3" d="M274.16,195a1.09,1.09,0,0,0-1.09,1.09v9a1.09,1.09,0,1,0,2.18,0v-9A1.09,1.09,0,0,0,274.16,195Z"/><path class="cls-3" d="M285.74,214.19,278,209.73a1.09,1.09,0,1,0-1.08,1.89l7.76,4.46a1.09,1.09,0,0,0,1.08-1.89Z"/><path class="cls-3" d="M270.34,209.76l-7.73,4.51a1.09,1.09,0,1,0,1.1,1.88l7.73-4.51a1.09,1.09,0,1,0-1.1-1.88Z"/><path class="cls-3" d="M319.85,228.4a.54.54,0,0,0,.54-.54v-9a.54.54,0,0,0-1.09,0v9A.54.54,0,0,0,319.85,228.4Z"/><path class="cls-3" d="M330.63,238.45a.54.54,0,0,0,.54-.94l-7.76-4.46a.54.54,0,0,0-.54.94Z"/><path class="cls-3" d="M309.13,238.53l7.73-4.51a.54.54,0,1,0-.55-.94l-7.73,4.51a.54.54,0,0,0,.27,1A.54.54,0,0,0,309.13,238.53Z"/><path class="cls-3" d="M365.55,195a1.09,1.09,0,0,0-1.09,1.09v9a1.09,1.09,0,0,0,1.09,1.09h0V195Z"/><path class="cls-3" d="M361.73,209.76,354,214.27a1.09,1.09,0,1,0,1.1,1.88l7.73-4.51a1.09,1.09,0,1,0-1.1-1.88Z"/><rect class="cls-1" width="182.79" height="182.79"/><path class="cls-3" d="M.52,159.31v-9a.54.54,0,0,0-.52-.54v10A.54.54,0,0,0,.52,159.31Z"/><path class="cls-3" d="M11.29,169l-7.76-4.46a.54.54,0,0,0-.54.94l7.76,4.46a.54.54,0,0,0,.54-.94Z"/><path class="cls-3" d="M46.76,173.21a1.09,1.09,0,0,0-2.18,0v9a1.07,1.07,0,0,0,.22.63h1.73a1.06,1.06,0,0,0,.22-.63Z"/><path class="cls-3" d="M91.37,149.82a.54.54,0,0,0-.54.54v9a.54.54,0,0,0,1.09,0v-9A.54.54,0,0,0,91.37,149.82Z"/><path class="cls-3" d="M102.69,169l-7.76-4.46a.54.54,0,1,0-.54.94l7.76,4.46a.54.54,0,0,0,.54-.94Z"/><path class="cls-3" d="M87.83,164.53,80.1,169a.54.54,0,0,0,.27,1,.54.54,0,0,0,.27-.07l7.73-4.51a.54.54,0,1,0-.55-.94Z"/><path class="cls-3" d="M138.16,173.21a1.09,1.09,0,0,0-2.18,0v9a1.07,1.07,0,0,0,.22.63h1.73a1.06,1.06,0,0,0,.22-.63Z"/><path class="cls-3" d="M45.67.46A1.07,1.07,0,0,0,46.54,0H44.81A1.07,1.07,0,0,0,45.67.46Z"/><path class="cls-3" d="M57.26,8.55,49.5,4.1A1.09,1.09,0,1,0,48.41,6l7.76,4.46a1.09,1.09,0,1,0,1.08-1.89Z"/><path class="cls-3" d="M41.86,4.12,34.13,8.64a1.09,1.09,0,1,0,1.1,1.88L43,6a1.09,1.09,0,1,0-1.1-1.88Z"/><path class="cls-3" d="M137.07.46a1.07,1.07,0,0,0,.87-.46H136.2A1.07,1.07,0,0,0,137.07.46Z"/><path class="cls-3" d="M148.65,8.55,140.89,4.1A1.09,1.09,0,1,0,139.81,6l7.76,4.46a1.09,1.09,0,1,0,1.08-1.89Z"/><path class="cls-3" d="M133.25,4.12l-7.73,4.51a1.09,1.09,0,1,0,1.1,1.88L134.35,6a1.09,1.09,0,1,0-1.1-1.88Z"/><path class="cls-3" d="M182.22,150.36v9a.54.54,0,0,0,.54.54h0v-10h0A.54.54,0,0,0,182.22,150.36Z"/><path class="cls-3" d="M179.22,164.53,171.49,169a.54.54,0,0,0,.27,1A.54.54,0,0,0,172,170l7.73-4.51a.54.54,0,1,0-.55-.94Z"/><path class="cls-3" d="M1.06,113.62v-9A1.09,1.09,0,0,0,0,103.58V114.7A1.09,1.09,0,0,0,1.06,113.62Z"/><path class="cls-3" d="M11.56,122.8,3.8,118.34a1.09,1.09,0,0,0-1.08,1.89l7.76,4.46a1.09,1.09,0,0,0,1.08-1.89Z"/><path class="cls-3" d="M45.67,127a.54.54,0,0,0-.54.54v9a.54.54,0,0,0,1.09,0v-9A.54.54,0,0,0,45.67,127Z"/><path class="cls-3" d="M57,146.12l-7.76-4.46a.54.54,0,1,0-.54.94l7.76,4.46a.54.54,0,1,0,.54-.94Z"/><path class="cls-3" d="M42.13,141.68,34.4,146.2a.54.54,0,0,0,.27,1,.54.54,0,0,0,.27-.07l7.73-4.51a.54.54,0,1,0-.55-.94Z"/><path class="cls-3" d="M91.37,103.58a1.09,1.09,0,0,0-1.09,1.09v9a1.09,1.09,0,0,0,2.18,0v-9A1.09,1.09,0,0,0,91.37,103.58Z"/><path class="cls-3" d="M103,122.8l-7.76-4.46a1.09,1.09,0,1,0-1.08,1.89l7.76,4.46A1.09,1.09,0,0,0,103,122.8Z"/><path class="cls-3" d="M87.55,118.37l-7.73,4.51a1.09,1.09,0,1,0,1.1,1.88l7.73-4.51a1.09,1.09,0,1,0-1.1-1.88Z"/><path class="cls-3" d="M137.07,127a.54.54,0,0,0-.54.54v9a.54.54,0,0,0,1.09,0v-9A.54.54,0,0,0,137.07,127Z"/><path class="cls-3" d="M148.38,146.12l-7.76-4.46a.54.54,0,1,0-.54.94l7.76,4.46a.54.54,0,1,0,.54-.94Z"/><path class="cls-3" d="M133.53,141.68l-7.73,4.51a.54.54,0,0,0,.27,1,.54.54,0,0,0,.27-.07l7.73-4.51a.54.54,0,1,0-.55-.94Z"/><path class="cls-3" d="M181.68,104.66v9a1.09,1.09,0,0,0,1.09,1.09h0V103.58h0A1.09,1.09,0,0,0,181.68,104.66Z"/><path class="cls-3" d="M178.95,118.37l-7.73,4.51a1.09,1.09,0,1,0,1.1,1.88l7.73-4.51a1.09,1.09,0,1,0-1.1-1.88Z"/><path class="cls-3" d="M.52,67.92V59A.54.54,0,0,0,0,58.43v10A.54.54,0,0,0,.52,67.92Z"/><path class="cls-3" d="M10.75,78.51a.54.54,0,0,0,.54-.94L3.53,73.11a.54.54,0,0,0-.54.94Z"/><path class="cls-3" d="M45.67,80.73a1.09,1.09,0,0,0-1.09,1.09v9a1.09,1.09,0,0,0,2.18,0v-9A1.09,1.09,0,0,0,45.67,80.73Z"/><path class="cls-3" d="M57.26,99.95,49.5,95.49a1.09,1.09,0,1,0-1.08,1.89l7.76,4.46a1.09,1.09,0,1,0,1.08-1.89Z"/><path class="cls-3" d="M41.86,95.52,34.13,100a1.09,1.09,0,1,0,1.1,1.88L43,97.4a1.09,1.09,0,1,0-1.1-1.88Z"/><path class="cls-3" d="M91.91,67.92V59a.54.54,0,0,0-1.09,0v9a.54.54,0,0,0,1.09,0Z"/><path class="cls-3" d="M102.14,78.51a.54.54,0,0,0,.54-.94l-7.76-4.46a.54.54,0,1,0-.54.94Z"/><path class="cls-3" d="M80.65,78.59l7.73-4.51a.54.54,0,1,0-.55-.94L80.1,77.65a.54.54,0,0,0,.27,1A.54.54,0,0,0,80.65,78.59Z"/><path class="cls-3" d="M137.07,80.73A1.09,1.09,0,0,0,136,81.82v9a1.09,1.09,0,0,0,2.18,0v-9A1.09,1.09,0,0,0,137.07,80.73Z"/><path class="cls-3" d="M148.65,99.95l-7.76-4.46a1.09,1.09,0,1,0-1.08,1.89l7.76,4.46a1.09,1.09,0,1,0,1.08-1.89Z"/><path class="cls-3" d="M133.25,95.52,125.52,100a1.09,1.09,0,1,0,1.1,1.88l7.73-4.51a1.09,1.09,0,1,0-1.1-1.88Z"/><path class="cls-3" d="M182.22,59v9a.54.54,0,0,0,.54.54h0v-10h0A.54.54,0,0,0,182.22,59Z"/><path class="cls-3" d="M172,78.59l7.73-4.51a.54.54,0,1,0-.55-.94l-7.73,4.51a.54.54,0,0,0,.27,1A.54.54,0,0,0,172,78.59Z"/><path class="cls-3" d="M1.06,22.22v-9A1.09,1.09,0,0,0,0,12.19V23.31A1.09,1.09,0,0,0,1.06,22.22Z"/><path class="cls-3" d="M11.56,31.4,3.8,26.95a1.09,1.09,0,0,0-1.08,1.89l7.76,4.46a1.09,1.09,0,0,0,1.08-1.89Z"/><path class="cls-3" d="M45.67,45.61a.54.54,0,0,0,.54-.54v-9a.54.54,0,0,0-1.09,0v9A.54.54,0,0,0,45.67,45.61Z"/><path class="cls-3" d="M56.45,55.67a.54.54,0,1,0,.54-.94l-7.76-4.46a.54.54,0,1,0-.54.94Z"/><path class="cls-3" d="M35,55.74l7.73-4.51a.54.54,0,1,0-.55-.94L34.4,54.8a.54.54,0,0,0,.27,1A.54.54,0,0,0,35,55.74Z"/><path class="cls-3" d="M91.37,12.18a1.09,1.09,0,0,0-1.09,1.09v9a1.09,1.09,0,0,0,2.18,0v-9A1.09,1.09,0,0,0,91.37,12.18Z"/><path class="cls-3" d="M103,31.4l-7.76-4.46a1.09,1.09,0,1,0-1.08,1.89l7.76,4.46A1.09,1.09,0,0,0,103,31.4Z"/><path class="cls-3" d="M87.55,27l-7.73,4.51a1.09,1.09,0,1,0,1.1,1.88l7.73-4.51A1.09,1.09,0,1,0,87.55,27Z"/><path class="cls-3" d="M137.07,45.61a.54.54,0,0,0,.54-.54v-9a.54.54,0,0,0-1.09,0v9A.54.54,0,0,0,137.07,45.61Z"/><path class="cls-3" d="M147.84,55.67a.54.54,0,1,0,.54-.94l-7.76-4.46a.54.54,0,1,0-.54.94Z"/><path class="cls-3" d="M126.34,55.74l7.73-4.51a.54.54,0,1,0-.55-.94L125.8,54.8a.54.54,0,0,0,.27,1A.54.54,0,0,0,126.34,55.74Z"/><path class="cls-3" d="M182.76,12.18a1.09,1.09,0,0,0-1.09,1.09v9a1.09,1.09,0,0,0,1.09,1.09h0V12.19Z"/><path class="cls-3" d="M178.95,27l-7.73,4.51a1.09,1.09,0,1,0,1.1,1.88L180,28.85a1.09,1.09,0,1,0-1.1-1.88Z"/><rect class="cls-1" y="182.79" width="182.79" height="182.79"/><path class="cls-3" d="M.52,342.1v-9a.54.54,0,0,0-.52-.54v10A.54.54,0,0,0,.52,342.1Z"/><path class="cls-3" d="M11.29,351.75,3.53,347.3a.54.54,0,0,0-.54.94l7.76,4.46a.54.54,0,0,0,.54-.94Z"/><path class="cls-3" d="M46.76,356a1.09,1.09,0,1,0-2.18,0v9a1.07,1.07,0,0,0,.22.63h1.73a1.06,1.06,0,0,0,.22-.63Z"/><path class="cls-3" d="M91.37,332.6a.54.54,0,0,0-.54.54v9a.54.54,0,1,0,1.09,0v-9A.54.54,0,0,0,91.37,332.6Z"/><path class="cls-3" d="M102.69,351.75l-7.76-4.46a.54.54,0,1,0-.54.94l7.76,4.46a.54.54,0,0,0,.54-.94Z"/><path class="cls-3" d="M87.83,347.32l-7.73,4.51a.54.54,0,0,0,.27,1,.54.54,0,0,0,.27-.07l7.73-4.51a.54.54,0,1,0-.55-.94Z"/><path class="cls-3" d="M138.16,356a1.09,1.09,0,1,0-2.18,0v9a1.07,1.07,0,0,0,.22.63h1.73a1.06,1.06,0,0,0,.22-.63Z"/><path class="cls-3" d="M45.67,183.25a1.07,1.07,0,0,0,.87-.46H44.81A1.07,1.07,0,0,0,45.67,183.25Z"/><path class="cls-3" d="M57.26,191.34l-7.76-4.46a1.09,1.09,0,1,0-1.08,1.89l7.76,4.46a1.09,1.09,0,1,0,1.08-1.89Z"/><path class="cls-3" d="M41.86,186.91l-7.73,4.51a1.09,1.09,0,1,0,1.1,1.88L43,188.79a1.09,1.09,0,1,0-1.1-1.88Z"/><path class="cls-3" d="M137.07,183.25a1.07,1.07,0,0,0,.87-.46H136.2A1.07,1.07,0,0,0,137.07,183.25Z"/><path class="cls-3" d="M148.65,191.34l-7.76-4.46a1.09,1.09,0,1,0-1.08,1.89l7.76,4.46a1.09,1.09,0,1,0,1.08-1.89Z"/><path class="cls-3" d="M133.25,186.91l-7.73,4.51a1.09,1.09,0,1,0,1.1,1.88l7.73-4.51a1.09,1.09,0,1,0-1.1-1.88Z"/><path class="cls-3" d="M182.22,333.15v9a.54.54,0,0,0,.54.54h0v-10h0A.54.54,0,0,0,182.22,333.15Z"/><path class="cls-3" d="M179.22,347.32l-7.73,4.51a.54.54,0,0,0,.27,1,.54.54,0,0,0,.27-.07l7.73-4.51a.54.54,0,1,0-.55-.94Z"/><path class="cls-3" d="M1.06,296.4v-9A1.09,1.09,0,0,0,0,286.37v11.12A1.09,1.09,0,0,0,1.06,296.4Z"/><path class="cls-3" d="M11.56,305.58,3.8,301.13A1.09,1.09,0,0,0,2.72,303l7.76,4.46a1.09,1.09,0,0,0,1.08-1.89Z"/><path class="cls-3" d="M45.67,309.76a.54.54,0,0,0-.54.54v9a.54.54,0,1,0,1.09,0v-9A.54.54,0,0,0,45.67,309.76Z"/><path class="cls-3" d="M57,328.9l-7.76-4.46a.54.54,0,1,0-.54.94l7.76,4.46a.54.54,0,1,0,.54-.94Z"/><path class="cls-3" d="M42.13,324.47,34.4,329a.54.54,0,0,0,.27,1,.54.54,0,0,0,.27-.07l7.73-4.51a.54.54,0,1,0-.55-.94Z"/><path class="cls-3" d="M91.37,286.36a1.09,1.09,0,0,0-1.09,1.09v9a1.09,1.09,0,1,0,2.18,0v-9A1.09,1.09,0,0,0,91.37,286.36Z"/><path class="cls-3" d="M103,305.58l-7.76-4.46A1.09,1.09,0,1,0,94.11,303l7.76,4.46a1.09,1.09,0,0,0,1.08-1.89Z"/><path class="cls-3" d="M87.55,301.16l-7.73,4.51a1.09,1.09,0,1,0,1.1,1.88L88.65,303a1.09,1.09,0,1,0-1.1-1.88Z"/><path class="cls-3" d="M137.07,309.76a.54.54,0,0,0-.54.54v9a.54.54,0,0,0,1.09,0v-9A.54.54,0,0,0,137.07,309.76Z"/><path class="cls-3" d="M148.38,328.9l-7.76-4.46a.54.54,0,0,0-.54.94l7.76,4.46a.54.54,0,1,0,.54-.94Z"/><path class="cls-3" d="M133.53,324.47,125.8,329a.54.54,0,0,0,.27,1,.54.54,0,0,0,.27-.07l7.73-4.51a.54.54,0,1,0-.55-.94Z"/><path class="cls-3" d="M181.68,287.45v9a1.09,1.09,0,0,0,1.09,1.09h0V286.37h0A1.09,1.09,0,0,0,181.68,287.45Z"/><path class="cls-3" d="M178.95,301.16l-7.73,4.51a1.09,1.09,0,1,0,1.1,1.88L180,303a1.09,1.09,0,1,0-1.1-1.88Z"/><path class="cls-3" d="M.52,250.71v-9a.54.54,0,0,0-.52-.54v10A.54.54,0,0,0,.52,250.71Z"/><path class="cls-3" d="M10.75,261.3a.54.54,0,0,0,.54-.94L3.53,255.9a.54.54,0,0,0-.54.94Z"/><path class="cls-3" d="M45.67,263.52a1.09,1.09,0,0,0-1.09,1.09v9a1.09,1.09,0,0,0,2.18,0v-9A1.09,1.09,0,0,0,45.67,263.52Z"/><path class="cls-3" d="M57.26,282.73l-7.76-4.46a1.09,1.09,0,1,0-1.08,1.89l7.76,4.46a1.09,1.09,0,1,0,1.08-1.89Z"/><path class="cls-3" d="M41.86,278.31l-7.73,4.51a1.09,1.09,0,1,0,1.1,1.88L43,280.18a1.09,1.09,0,1,0-1.1-1.88Z"/><path class="cls-3" d="M91.91,250.71v-9a.54.54,0,1,0-1.09,0v9a.54.54,0,1,0,1.09,0Z"/><path class="cls-3" d="M102.14,261.3a.54.54,0,0,0,.54-.94l-7.76-4.46a.54.54,0,1,0-.54.94Z"/><path class="cls-3" d="M80.65,261.38l7.73-4.51a.54.54,0,1,0-.55-.94l-7.73,4.51a.54.54,0,0,0,.27,1A.54.54,0,0,0,80.65,261.38Z"/><path class="cls-3" d="M137.07,263.52A1.09,1.09,0,0,0,136,264.6v9a1.09,1.09,0,0,0,2.18,0v-9A1.09,1.09,0,0,0,137.07,263.52Z"/><path class="cls-3" d="M148.65,282.73l-7.76-4.46a1.09,1.09,0,1,0-1.08,1.89l7.76,4.46a1.09,1.09,0,1,0,1.08-1.89Z"/><path class="cls-3" d="M133.25,278.31l-7.73,4.51a1.09,1.09,0,1,0,1.1,1.88l7.73-4.51a1.09,1.09,0,1,0-1.1-1.88Z"/><path class="cls-3" d="M182.22,241.76v9a.54.54,0,0,0,.54.54h0v-10h0A.54.54,0,0,0,182.22,241.76Z"/><path class="cls-3" d="M172,261.38l7.73-4.51a.54.54,0,1,0-.55-.94l-7.73,4.51a.54.54,0,0,0,.27,1A.54.54,0,0,0,172,261.38Z"/><path class="cls-3" d="M1.06,205v-9A1.09,1.09,0,0,0,0,195v11.12A1.09,1.09,0,0,0,1.06,205Z"/><path class="cls-3" d="M11.56,214.19,3.8,209.73a1.09,1.09,0,0,0-1.08,1.89l7.76,4.46a1.09,1.09,0,0,0,1.08-1.89Z"/><path class="cls-3" d="M45.67,228.4a.54.54,0,0,0,.54-.54v-9a.54.54,0,0,0-1.09,0v9A.54.54,0,0,0,45.67,228.4Z"/><path class="cls-3" d="M56.45,238.45a.54.54,0,0,0,.54-.94l-7.76-4.46a.54.54,0,0,0-.54.94Z"/><path class="cls-3" d="M35,238.53,42.68,234a.54.54,0,1,0-.55-.94l-7.73,4.51a.54.54,0,0,0,.27,1A.54.54,0,0,0,35,238.53Z"/><path class="cls-3" d="M91.37,195a1.09,1.09,0,0,0-1.09,1.09v9a1.09,1.09,0,0,0,2.18,0v-9A1.09,1.09,0,0,0,91.37,195Z"/><path class="cls-3" d="M103,214.19l-7.76-4.46a1.09,1.09,0,1,0-1.08,1.89l7.76,4.46a1.09,1.09,0,0,0,1.08-1.89Z"/><path class="cls-3" d="M87.55,209.76l-7.73,4.51a1.09,1.09,0,1,0,1.1,1.88l7.73-4.51a1.09,1.09,0,1,0-1.1-1.88Z"/><path class="cls-3" d="M137.07,228.4a.54.54,0,0,0,.54-.54v-9a.54.54,0,0,0-1.09,0v9A.54.54,0,0,0,137.07,228.4Z"/><path class="cls-3" d="M147.84,238.45a.54.54,0,0,0,.54-.94l-7.76-4.46a.54.54,0,0,0-.54.94Z"/><path class="cls-3" d="M126.34,238.53l7.73-4.51a.54.54,0,1,0-.55-.94l-7.73,4.51a.54.54,0,0,0,.27,1A.54.54,0,0,0,126.34,238.53Z"/><path class="cls-3" d="M182.76,195a1.09,1.09,0,0,0-1.09,1.09v9a1.09,1.09,0,0,0,1.09,1.09h0V195Z"/><path class="cls-3" d="M178.95,209.76l-7.73,4.51a1.09,1.09,0,1,0,1.1,1.88l7.73-4.51a1.09,1.09,0,1,0-1.1-1.88Z"/></g></g></g></svg>